# xmcd CD database file
#
# Track frame offsets:
#	150
#	13537
#	30012
#	42212
#	58525
#	71212
#	88325
#	105462
#	122812
#	135312
#	149575
#
# Disc length: 2160 seconds
#
# Revision: 0
# Processed by: cddbd v1.5.2PL0 Copyright (c) Steve Scherf et al.
# Submitted via: CDex 1.70beta2
#
DISCID=91086e0b
DTITLE=Various Artist - Nashville Shooters - Denim Rhythms
DYEAR=1900
DGENRE=Country
TTITLE0=She's every woman
TTITLE1=Not a moment too soon
TTITLE2=Hillbilly rock
TTITLE3=Baby likes to rock it
TTITLE4=I try to think about Elvis
TTITLE5=Shut up and kiss me
TTITLE6=Livin' on love
TTITLE7=The heart is a lonely hunter
TTITLE8=My kind of girl
TTITLE9=That's my story
TTITLE10=What the cowgirls do
EXTD=
EXTT0=
EXTT1=
EXTT2=
EXTT3=
EXTT4=
EXTT5=
EXTT6=
EXTT7=
EXTT8=
EXTT9=
EXTT10=
PLAYORDER=
